<svg width="18" height="22" viewBox="0 0 18 22" fill="none" xmlns="http://www.w3.org/2000/svg">
<path d="M8.99996 0.716064C9.28928 0.716064 9.56676 0.824413 9.77134 1.01727C9.97592 1.21014 10.0909 1.47171 10.0909 1.74446V12.631L12.5923 10.2729C12.798 10.0856 13.0736 9.98194 13.3596 9.98428C13.6456 9.98663 13.9192 10.0948 14.1215 10.2855C14.3238 10.4761 14.4385 10.7341 14.441 11.0037C14.4435 11.2733 14.3335 11.5331 14.1348 11.7271L9.77122 15.8407C9.56665 16.0334 9.28923 16.1417 8.99996 16.1417C8.7107 16.1417 8.43327 16.0334 8.2287 15.8407L3.86513 11.7271C3.76094 11.6322 3.67784 11.5187 3.62066 11.3933C3.56349 11.2678 3.5334 11.1328 3.53214 10.9963C3.53088 10.8597 3.55848 10.7243 3.61333 10.5979C3.66818 10.4716 3.74919 10.3567 3.85161 10.2602C3.95404 10.1636 4.07584 10.0873 4.20991 10.0356C4.34397 9.98384 4.48762 9.95782 4.63247 9.95901C4.77732 9.96019 4.92046 9.98856 5.05356 10.0425C5.18665 10.0964 5.30702 10.1747 5.40765 10.2729L7.90907 12.631V1.74446C7.90907 1.47171 8.024 1.21014 8.22858 1.01727C8.43317 0.824413 8.71064 0.716064 8.99996 0.716064ZM1.36372 16.142C1.65304 16.142 1.93051 16.2503 2.1351 16.4432C2.33968 16.636 2.45461 16.8976 2.45461 17.1704V19.2271H15.5453V17.1704C15.5453 16.8976 15.6602 16.636 15.8648 16.4432C16.0694 16.2503 16.3469 16.142 16.6362 16.142C16.9255 16.142 17.203 16.2503 17.4076 16.4432C17.6122 16.636 17.7271 16.8976 17.7271 17.1704V19.2271C17.7271 19.7726 17.4972 20.2958 17.0881 20.6815C16.6789 21.0672 16.124 21.2839 15.5453 21.2839H2.45461C1.87597 21.2839 1.32102 21.0672 0.911857 20.6815C0.502693 20.2958 0.272827 19.7726 0.272827 19.2271V17.1704C0.272827 16.8976 0.38776 16.636 0.592342 16.4432C0.796924 16.2503 1.0744 16.142 1.36372 16.142Z" fill="#5E5E5E"/>
</svg>
