<svg width="23" height="16" viewBox="0 0 23 16" fill="none" xmlns="http://www.w3.org/2000/svg">
<path d="M0.9881 7.00007C0.435854 7.00664 -0.00650138 7.45965 7.08103e-05 8.0119C0.006643 8.56415 0.459654 9.0065 1.0119 8.99993L0.9881 7.00007ZM22.7224 8.44864C23.1082 8.0535 23.1007 7.42038 22.7056 7.03453L16.2663 0.746749C15.8712 0.3609 15.2381 0.368435 14.8522 0.763579C14.4664 1.15872 14.4739 1.79184 14.869 2.17769L20.5928 7.76683L15.0037 13.4906C14.6178 13.8857 14.6254 14.5189 15.0205 14.9047C15.4156 15.2906 16.0488 15.283 16.4346 14.8879L22.7224 8.44864ZM1.0119 8.99993L22.0188 8.74993L21.995 6.75007L0.9881 7.00007L1.0119 8.99993Z" fill="#090909"/>
</svg>
