<svg width="23" height="16" viewBox="0 0 23 16" fill="none" xmlns="http://www.w3.org/2000/svg">
<path d="M22.0119 8.99993C22.5641 8.99336 23.0065 8.54035 22.9999 7.9881C22.9934 7.43585 22.5403 6.9935 21.9881 7.00007L22.0119 8.99993ZM0.277608 7.55136C-0.108241 7.9465 -0.100706 8.57962 0.294437 8.96547L6.73368 15.2533C7.12882 15.6391 7.76194 15.6316 8.14779 15.2364C8.53364 14.8413 8.52611 14.2082 8.13096 13.8223L2.40719 8.23317L7.99633 2.5094C8.38218 2.11426 8.37464 1.48114 7.9795 1.09529C7.58436 0.709438 6.95124 0.716972 6.56539 1.11212L0.277608 7.55136ZM21.9881 7.00007L0.98118 7.25007L1.00498 9.24993L22.0119 8.99993L21.9881 7.00007Z" fill="#090909"/>
</svg>
