<svg width="55" height="54" viewBox="0 0 55 54" fill="none" xmlns="http://www.w3.org/2000/svg">
<path d="M27.5 0C28.2293 0 28.9288 0.280599 29.4445 0.780069C29.9603 1.27954 30.25 1.95696 30.25 2.66332V5.32664C30.25 6.033 29.9603 6.71043 29.4445 7.20989C28.9288 7.70936 28.2293 7.98996 27.5 7.98996C26.7707 7.98996 26.0712 7.70936 25.5555 7.20989C25.0397 6.71043 24.75 6.033 24.75 5.32664V2.66332C24.75 1.95696 25.0397 1.27954 25.5555 0.780069C26.0712 0.280599 26.7707 0 27.5 0ZM46.9452 7.80087C47.4608 8.30031 47.7504 8.97762 47.7504 9.68384C47.7504 10.3901 47.4608 11.0674 46.9452 11.5668L45.001 13.4498C44.7473 13.7041 44.4439 13.907 44.1084 14.0466C43.7729 14.1862 43.412 14.2597 43.0469 14.2628C42.6817 14.2658 42.3196 14.1984 41.9816 14.0645C41.6437 13.9306 41.3366 13.7329 41.0784 13.4828C40.8202 13.2327 40.616 12.9354 40.4777 12.608C40.3395 12.2807 40.2699 11.93 40.2731 11.5764C40.2762 11.2228 40.3521 10.8733 40.4962 10.5483C40.6403 10.2234 40.8499 9.92952 41.1125 9.68384L43.0568 7.80087C43.5725 7.30157 44.2718 7.02108 45.001 7.02108C45.7302 7.02108 46.4295 7.30157 46.9452 7.80087ZM8.05475 7.80087C8.57045 7.30157 9.2698 7.02108 9.999 7.02108C10.7282 7.02108 11.4275 7.30157 11.9432 7.80087L13.8875 9.68384C14.3884 10.1861 14.6656 10.8589 14.6594 11.5572C14.6531 12.2555 14.3639 12.9235 13.854 13.4173C13.3441 13.9111 12.6544 14.1912 11.9334 14.1973C11.2123 14.2034 10.5177 13.9349 9.999 13.4498L8.05475 11.5668C7.5392 11.0674 7.24959 10.3901 7.24959 9.68384C7.24959 8.97762 7.5392 8.30031 8.05475 7.80087ZM27.5 15.9799C24.5826 15.9799 21.7847 17.1023 19.7218 19.1002C17.6589 21.0981 16.5 23.8078 16.5 26.6332C16.5 29.4586 17.6589 32.1683 19.7218 34.1662C21.7847 36.1641 24.5826 37.2865 27.5 37.2865C30.4174 37.2865 33.2153 36.1641 35.2782 34.1662C37.3411 32.1683 38.5 29.4586 38.5 26.6332C38.5 23.8078 37.3411 21.0981 35.2782 19.1002C33.2153 17.1023 30.4174 15.9799 27.5 15.9799ZM11 26.6332C11 22.3951 12.7384 18.3305 15.8327 15.3337C18.9271 12.3369 23.1239 10.6533 27.5 10.6533C31.8761 10.6533 36.0729 12.3369 39.1673 15.3337C42.2616 18.3305 44 22.3951 44 26.6332C44 30.8714 42.2616 34.9359 39.1673 37.9327C36.0729 40.9295 31.8761 42.6131 27.5 42.6131C23.1239 42.6131 18.9271 40.9295 15.8327 37.9327C12.7384 34.9359 11 30.8714 11 26.6332ZM0 26.6332C0 25.9269 0.289731 25.2494 0.805456 24.75C1.32118 24.2505 2.02065 23.9699 2.75 23.9699H5.5C6.22935 23.9699 6.92882 24.2505 7.44454 24.75C7.96027 25.2494 8.25 25.9269 8.25 26.6332C8.25 27.3396 7.96027 28.017 7.44454 28.5165C6.92882 29.0159 6.22935 29.2965 5.5 29.2965H2.75C2.02065 29.2965 1.32118 29.0159 0.805456 28.5165C0.289731 28.017 0 27.3396 0 26.6332ZM46.75 26.6332C46.75 25.9269 47.0397 25.2494 47.5555 24.75C48.0712 24.2505 48.7707 23.9699 49.5 23.9699H52.25C52.9793 23.9699 53.6788 24.2505 54.1945 24.75C54.7103 25.2494 55 25.9269 55 26.6332C55 27.3396 54.7103 28.017 54.1945 28.5165C53.6788 29.0159 52.9793 29.2965 52.25 29.2965H49.5C48.7707 29.2965 48.0712 29.0159 47.5555 28.5165C47.0397 28.017 46.75 27.3396 46.75 26.6332ZM9.999 39.8167C10.5177 39.3315 11.2123 39.0631 11.9334 39.0691C12.6544 39.0752 13.3441 39.3553 13.854 39.8491C14.3639 40.3429 14.6531 41.0109 14.6594 41.7092C14.6656 42.4075 14.3884 43.0803 13.8875 43.5826L11.9432 45.4656C11.4246 45.9507 10.7299 46.2191 10.0089 46.2131C9.28786 46.207 8.59812 45.9269 8.08825 45.4331C7.57838 44.9393 7.28916 44.2713 7.2829 43.573C7.27663 42.8747 7.55381 42.2019 8.05475 41.6996L9.999 39.8167ZM41.1125 43.5826C40.6116 43.0803 40.3344 42.4075 40.3406 41.7092C40.3469 41.0109 40.6361 40.3429 41.146 39.8491C41.6559 39.3553 42.3456 39.0752 43.0667 39.0691C43.7877 39.0631 44.4823 39.3315 45.001 39.8167L46.9452 41.6996C47.4462 42.2019 47.7234 42.8747 47.7171 43.573C47.7108 44.2713 47.4216 44.9393 46.9118 45.4331C46.4019 45.9269 45.7121 46.207 44.9911 46.2131C44.2701 46.2191 43.5754 45.9507 43.0568 45.4656L41.1125 43.5826ZM27.5 45.2765C28.2293 45.2765 28.9288 45.5571 29.4445 46.0565C29.9603 46.556 30.25 47.2334 30.25 47.9398V50.6031C30.25 51.3095 29.9603 51.9869 29.4445 52.4864C28.9288 52.9858 28.2293 53.2664 27.5 53.2664C26.7707 53.2664 26.0712 52.9858 25.5555 52.4864C25.0397 51.9869 24.75 51.3095 24.75 50.6031V47.9398C24.75 47.2334 25.0397 46.556 25.5555 46.0565C26.0712 45.5571 26.7707 45.2765 27.5 45.2765Z" fill="#5E5E5E"/>
</svg>
