<svg width="41" height="41" viewBox="0 0 41 41" fill="none" xmlns="http://www.w3.org/2000/svg">
<g clip-path="url(#clip0_285_13)">
<path d="M29.0417 34.1667H4.27083C3.13855 34.1653 2.05304 33.7149 1.2524 32.9143C0.451753 32.1136 0.0013563 31.0281 0 29.8958L0 4.27083C0 1.91675 1.91675 0 4.27083 0H17.9375C18.1156 1.01644e-05 18.2892 0.0556721 18.4341 0.159202C18.5789 0.262732 18.6878 0.408953 18.7455 0.577417L29.8497 33.0358C29.893 33.1643 29.9051 33.3014 29.8851 33.4356C29.8651 33.5697 29.8135 33.6973 29.7346 33.8077C29.6558 33.918 29.5518 34.0081 29.4314 34.0706C29.3109 34.133 29.1773 34.1659 29.0417 34.1667ZM4.27083 1.70833C2.85804 1.70833 1.70833 2.85804 1.70833 4.27083V29.8958C1.70833 31.3086 2.85804 32.4583 4.27083 32.4583H27.8458L17.3276 1.70833H4.27083Z" fill="#5E5E5E"/>
<path d="M36.7291 41H23.0624C22.8887 41 22.7191 40.947 22.5762 40.8481C22.4334 40.7492 22.3241 40.6091 22.2629 40.4465L19.7004 33.6131C19.6207 33.4011 19.6284 33.1661 19.722 32.9598C19.8155 32.7534 19.9872 32.5927 20.1993 32.513C20.4113 32.4332 20.6463 32.441 20.8526 32.5345C21.059 32.6281 21.2197 32.7998 21.2994 33.0118L23.6552 39.2916H36.7291C38.1419 39.2916 39.2916 38.1419 39.2916 36.7291V11.1041C39.2916 9.69135 38.1419 8.54165 36.7291 8.54165H20.4999C20.2734 8.54165 20.0561 8.45165 19.8959 8.29147C19.7357 8.13128 19.6458 7.91402 19.6458 7.68748C19.6458 7.46094 19.7357 7.24368 19.8959 7.08349C20.0561 6.92331 20.2734 6.83331 20.4999 6.83331H36.7291C39.0832 6.83331 40.9999 8.75006 40.9999 11.1041V36.7291C40.9999 39.0832 39.0832 41 36.7291 41Z" fill="#5E5E5E"/>
<path d="M23.0625 41C22.8982 41.0001 22.7374 40.9529 22.5993 40.8639C22.4612 40.7749 22.3516 40.648 22.2838 40.4983C22.2161 40.3487 22.1929 40.1826 22.217 40.0201C22.2412 39.8576 22.3118 39.7055 22.4202 39.5821L28.3994 32.7488C28.4733 32.6643 28.5631 32.5952 28.6637 32.5455C28.7644 32.4957 28.8738 32.4663 28.9858 32.4588C29.0978 32.4514 29.2101 32.4661 29.3165 32.502C29.4228 32.538 29.521 32.5946 29.6054 32.6685C29.6899 32.7424 29.759 32.8322 29.8087 32.9329C29.8585 33.0335 29.8879 33.1429 29.8954 33.2549C29.9028 33.3669 29.8882 33.4793 29.8522 33.5856C29.8162 33.6919 29.7597 33.7901 29.6857 33.8746L23.7066 40.7079C23.6262 40.7996 23.5271 40.8731 23.4161 40.9234C23.305 40.9738 23.1845 40.9999 23.0625 41ZM16.2292 23.9167C16.0529 23.917 15.8808 23.8626 15.7367 23.761C15.5926 23.6594 15.4836 23.5157 15.4246 23.3495L11.9584 13.6445L8.49216 23.3495C8.41604 23.5629 8.25827 23.7373 8.05355 23.8344C7.84883 23.9315 7.61393 23.9433 7.40053 23.8671C7.18713 23.791 7.01271 23.6333 6.91563 23.4285C6.81856 23.2238 6.80679 22.9889 6.8829 22.7755L11.1537 10.8172C11.3963 10.1373 12.5204 10.1373 12.7613 10.8172L17.0321 22.7755C17.0781 22.9043 17.0924 23.0422 17.074 23.1777C17.0555 23.3132 17.0049 23.4422 16.9262 23.554C16.8475 23.6659 16.7431 23.7572 16.6219 23.8203C16.5006 23.8834 16.3659 23.9164 16.2292 23.9167Z" fill="#5E5E5E"/>
<path d="M13.6666 18.7916H10.2499C10.0234 18.7916 9.80612 18.7017 9.64593 18.5415C9.48574 18.3813 9.39575 18.164 9.39575 17.9375C9.39575 17.7109 9.48574 17.4937 9.64593 17.3335C9.80612 17.1733 10.0234 17.0833 10.2499 17.0833H13.6666C13.8931 17.0833 14.1104 17.1733 14.2706 17.3335C14.4308 17.4937 14.5208 17.7109 14.5208 17.9375C14.5208 18.164 14.4308 18.3813 14.2706 18.5415C14.1104 18.7017 13.8931 18.7916 13.6666 18.7916ZM36.7291 18.7916H24.7708C24.5442 18.7916 24.327 18.7017 24.1668 18.5415C24.0066 18.3813 23.9166 18.164 23.9166 17.9375C23.9166 17.7109 24.0066 17.4937 24.1668 17.3335C24.327 17.1733 24.5442 17.0833 24.7708 17.0833H36.7291C36.9556 17.0833 37.1729 17.1733 37.3331 17.3335C37.4933 17.4937 37.5833 17.7109 37.5833 17.9375C37.5833 18.164 37.4933 18.3813 37.3331 18.5415C37.1729 18.7017 36.9556 18.7916 36.7291 18.7916Z" fill="#5E5E5E"/>
<path d="M29.8958 18.7917C29.6693 18.7917 29.452 18.7017 29.2918 18.5415C29.1316 18.3813 29.0416 18.164 29.0416 17.9375V16.2292C29.0416 16.0026 29.1316 15.7854 29.2918 15.6252C29.452 15.465 29.6693 15.375 29.8958 15.375C30.1223 15.375 30.3396 15.465 30.4998 15.6252C30.66 15.7854 30.75 16.0026 30.75 16.2292V17.9375C30.75 18.164 30.66 18.3813 30.4998 18.5415C30.3396 18.7017 30.1223 18.7917 29.8958 18.7917ZM27.3333 29.0417C27.1512 29.0438 26.9733 28.9875 26.8256 28.881C26.6779 28.7746 26.5683 28.6235 26.5128 28.4501C26.4574 28.2766 26.459 28.09 26.5175 27.9176C26.576 27.7452 26.6883 27.5961 26.8379 27.4922C30.5774 24.8358 33.3125 19.4169 33.3125 17.9392C33.3125 17.7127 33.4025 17.4954 33.5626 17.3352C33.7228 17.175 33.9401 17.085 34.1666 17.085C34.3932 17.085 34.6104 17.175 34.7706 17.3352C34.9308 17.4954 35.0208 17.7127 35.0208 17.9392C35.0208 20.1908 31.7288 26.1136 27.8287 28.8862C27.6834 28.9875 27.5104 29.0417 27.3333 29.0417Z" fill="#5E5E5E"/>
<path d="M34.1666 30.75C33.9533 30.7508 33.7476 30.6709 33.5909 30.5262C32.9708 29.959 27.5126 24.9177 26.5423 22.5295C26.466 22.3215 26.4734 22.0921 26.5631 21.8895C26.6527 21.6869 26.8176 21.5271 27.0228 21.4437C27.2281 21.3604 27.4577 21.3601 27.6632 21.4428C27.8687 21.5255 28.034 21.6849 28.1242 21.8872C28.8229 23.6075 33.1399 27.7963 34.744 29.2655C34.8712 29.3817 34.9602 29.5337 34.9994 29.7015C35.0386 29.8692 35.0261 30.0449 34.9637 30.2055C34.9012 30.366 34.7917 30.504 34.6494 30.6011C34.5072 30.6983 34.3389 30.7502 34.1666 30.75Z" fill="#5E5E5E"/>
</g>
<defs>
<clipPath id="clip0_285_13">
<rect width="41" height="41" fill="white"/>
</clipPath>
</defs>
</svg>
